<?xml version="1.0" encoding="UTF-8"?>
<svg xmlns="http://www.w3.org/2000/svg" width="33" height="33" viewBox="0 0 33 33" fill="none">
  <path d="M28.3322 2.66797H4.96403C3.68716 2.66797 2.57153 3.58672 2.57153 4.84859V28.2686C2.57153 29.5373 3.68716 30.668 4.96403 30.668H28.3253C29.609 30.668 30.5715 29.5298 30.5715 28.2686V4.84859C30.579 3.58672 29.609 2.66797 28.3322 2.66797ZM11.2509 26.0073H7.23966V13.5355H11.2509V26.0073ZM9.38403 11.6392H9.35528C8.07153 11.6392 7.24028 10.6836 7.24028 9.48734C7.24028 8.26922 8.09341 7.33609 9.40591 7.33609C10.7184 7.33609 11.5215 8.26234 11.5503 9.48734C11.5497 10.6836 10.7184 11.6392 9.38403 11.6392ZM25.9109 26.0073H21.8997V19.188C21.8997 17.5542 21.3159 16.438 19.8647 16.438C18.7559 16.438 18.0997 17.188 17.8078 17.9186C17.6984 18.1811 17.669 18.5386 17.669 18.9036V26.0073H13.6578V13.5355H17.669V15.2711C18.2528 14.4398 19.1647 13.2436 21.2865 13.2436C23.9197 13.2436 25.9115 14.9792 25.9115 18.7211L25.9109 26.0073Z" fill="#06184A"></path>
</svg>
