<?xml version="1.0" encoding="UTF-8"?>
<svg xmlns="http://www.w3.org/2000/svg" width="33" height="33" viewBox="0 0 33 33" fill="none">
  <path d="M26.8473 6.82093C27.9123 7.88595 28.5126 9.32913 28.5171 10.8353V22.5006C28.5126 24.0068 27.9123 25.45 26.8473 26.515C25.7823 27.58 24.3391 28.1803 22.8329 28.1848H11.1676C9.66141 28.1803 8.21822 27.58 7.1532 26.515C6.08824 25.45 5.48793 24.007 5.48337 22.5009V10.8351C5.48793 9.32898 6.08824 7.88589 7.1532 6.82093C8.21816 5.75596 9.66126 5.15565 11.1673 5.15109H22.8332C24.3392 5.15565 25.7823 5.75596 26.8473 6.82093ZM22.8334 2.51797H11.1671C6.5924 2.51797 2.85024 6.26013 2.85024 10.8348V22.5011C2.85024 27.0758 6.5924 30.818 11.1671 30.818H22.8334C27.4081 30.818 31.1502 27.0758 31.1502 22.5011V10.8348C31.1502 6.26013 27.4081 2.51797 22.8334 2.51797Z" fill="#06184A" stroke="#06184A" stroke-width="0.3"></path>
  <path d="M24.5833 10.8359C24.2371 10.8359 23.8988 10.7333 23.611 10.541C23.3232 10.3487 23.0989 10.0754 22.9665 9.75563C22.834 9.43586 22.7994 9.084 22.8669 8.74453C22.9344 8.40506 23.1011 8.09324 23.3458 7.8485C23.5906 7.60376 23.9024 7.43709 24.2418 7.36956C24.5813 7.30204 24.9332 7.3367 25.2529 7.46915C25.5727 7.6016 25.846 7.8259 26.0383 8.11369C26.2306 8.40148 26.3333 8.73982 26.3333 9.08594C26.3337 9.31589 26.2888 9.54368 26.201 9.75622C26.1133 9.96876 25.9844 10.1619 25.8218 10.3245C25.6592 10.4871 25.4661 10.616 25.2535 10.7037C25.041 10.7915 24.8132 10.8364 24.5833 10.8359V10.8359Z" fill="#06184A"></path>
  <path d="M17.0002 13.1511C15.8027 13.1524 14.6546 13.6287 13.8078 14.4755C12.961 15.3223 12.4847 16.4704 12.4834 17.668L17.0002 13.1511ZM17.0002 13.1511C17.8936 13.1511 18.7669 13.416 19.5097 13.9123M17.0002 13.1511L19.5097 13.9123M19.5097 13.9123C20.2525 14.4086 20.8314 15.1141 21.1733 15.9394M19.5097 13.9123L21.1733 15.9394M21.1733 15.9394C21.5152 16.7648 21.6046 17.673 21.4303 18.5492M21.1733 15.9394L21.4303 18.5492M21.4303 18.5492C21.256 19.4254 20.8259 20.2302 20.1942 20.8619M21.4303 18.5492L20.1942 20.8619M20.1942 20.8619C19.5625 21.4936 18.7576 21.9238 17.8814 22.0981M20.1942 20.8619L17.8814 22.0981M17.8814 22.0981C17.0053 22.2723 16.0971 22.1829 15.2717 21.841M17.8814 22.0981L15.2717 21.841M15.2717 21.841C14.4464 21.4991 13.7409 20.9202 13.2446 20.1774M15.2717 21.841L13.2446 20.1774M13.2446 20.1774C12.7483 19.4347 12.4834 18.5614 12.4834 17.6681L13.2446 20.1774ZM17.0002 10.518C15.5861 10.518 14.2037 10.9373 13.0279 11.723C11.8521 12.5086 10.9357 13.6253 10.3945 14.9318C9.85334 16.2383 9.71175 17.6759 9.98763 19.0629C10.2635 20.4498 10.9445 21.7238 11.9444 22.7238C12.9444 23.7237 14.2184 24.4047 15.6054 24.6806C16.9923 24.9565 18.4299 24.8149 19.7364 24.2737C21.0429 23.7325 22.1596 22.8161 22.9453 21.6403C23.7309 20.4645 24.1502 19.0821 24.1502 17.668C24.1502 15.7717 23.3969 13.953 22.0561 12.6122C20.7152 11.2713 18.8965 10.518 17.0002 10.518Z" fill="#06184A" stroke="#06184A" stroke-width="0.3"></path>
</svg>
