<?xml version="1.0" encoding="UTF-8"?>
<svg xmlns="http://www.w3.org/2000/svg" width="88" height="33" viewBox="0 0 88 33" fill="none">
  <path d="M20.6855 7.30216C19.2055 7.84901 17.7926 8.56275 16.4742 9.42956L11.6543 6.94311L17.0304 4.92323L20.7053 6.99047L16.7814 7.43848C16.7814 7.43848 20.6855 7.29576 20.6855 7.30472V7.30216ZM20.7834 7.578L18.6554 10.5566C18.6842 10.5707 21.0311 7.81417 21.0311 7.81417L20.2503 11.3752L18.6547 10.5528L18.672 10.5617L18.6547 10.5528C18.6695 10.5617 17.7901 10.1048 17.7901 10.1048C18.493 8.96441 19.5411 8.07776 20.7821 7.57352L20.7834 7.578ZM17.1181 4.88547L21.1188 3.38336L21.0932 6.5719L19.6621 4.27106L20.8781 6.72487L17.1181 4.88547ZM25.5848 14.1272L20.345 11.4245L21.323 7.88457L22.658 12.1432L21.6462 7.78473L23.5841 9.63628L21.8401 7.62792L25.8184 8.81514L21.9847 7.40392L24.6337 6.87271L21.9611 6.99687L26.0341 3.46464L21.7178 6.67239L23.2078 3.22528L21.4279 6.55974L21.2199 3.3488L28.2844 0.695312L25.5848 14.1272Z" fill="#06184A"></path>
  <path d="M4.86892 17.1524C9.63253 12.8503 16.4397 9.375 16.4397 9.375L16.4845 9.42044C16.4845 9.42044 11.2876 13.0493 8.77747 15.7918C6.00366 18.8203 3.38921 22.2258 4.20842 25.5532C4.72875 27.6729 7.07632 29.1533 10.2508 29.6045C14.3161 30.1805 17.2007 28.5651 17.4733 27.0297C17.7152 25.6659 15.8899 24.6841 12.8012 24.27C11.2498 24.0126 9.67611 23.9152 8.10482 23.9794V23.886C9.69769 23.7401 11.2998 23.7236 12.8953 23.8367C18.329 24.0742 21.8913 25.5372 21.4535 27.3209C21.0247 29.0752 17.3287 30.2093 13.7868 30.6036C18.8129 30.5018 24.3816 29.2275 25.0338 26.7347C25.6098 24.5151 19.7927 22.3295 14.2233 22.3295C12.8857 22.3295 11.6249 22.2591 10.7929 22.3429L10.789 22.2623C12.4736 22.0753 14.1683 21.9945 15.863 22.0204C22.7221 22.0204 29.1113 24.103 28.5212 26.7372C27.981 29.1597 23.3473 30.2573 20.242 30.7514C24.8597 30.5306 31.7065 28.8422 32.2013 25.9251C32.7133 22.917 24.8367 20.6821 17.7556 20.6821C15.8394 20.6821 14.9657 20.6021 13.847 20.7013V20.6078C15.2771 20.4449 16.7165 20.3779 18.1556 20.4075C27.5509 20.4075 35.7508 22.8396 34.9239 26.5036C34.1079 30.1255 25.4101 32.6593 16.0141 32.6689C7.60561 32.6772 -0.681909 30.514 0.044505 24.7468C0.428512 21.6747 3.28809 18.5771 4.86764 17.1524" fill="#06184A"></path>
  <path d="M41.4259 30.001L41.5072 29.6042H39.9974L40.6054 26.6602H40.1574L39.4656 30.0029" fill="#06184A"></path>
  <path d="M43.1808 29.999L43.7088 29.1305H45.218L45.3882 29.999H45.8778L45.2577 26.6562H44.7777L42.7188 29.999H43.1808ZM44.9005 27.1151L45.1566 28.7312H43.9476" fill="#06184A"></path>
  <path d="M48.5326 27.057H49.0933C49.5234 27.0429 49.8088 27.121 49.7205 27.5607C49.6322 28.0003 49.3102 28.0778 48.8846 28.065H48.324L48.5326 27.057ZM48.6363 30.001C48.8306 30.0159 49.026 29.9942 49.2123 29.937C49.3973 29.8783 49.5641 29.7728 49.6966 29.6309C49.8291 29.489 49.9229 29.3154 49.9688 29.1268C50.0539 28.7108 49.9048 28.3255 49.4984 28.2621V28.2512C49.6691 28.205 49.824 28.1133 49.9466 27.9859C50.0692 27.8586 50.155 27.7003 50.1947 27.528C50.3317 26.8816 49.8843 26.6602 49.3243 26.6602H48.1678L47.4785 30.001H48.6363ZM48.2421 28.465H48.996C49.3422 28.465 49.5989 28.6218 49.5131 29.0333C49.4806 29.2051 49.3853 29.3586 49.2458 29.464C49.1064 29.5694 48.9327 29.6192 48.7585 29.6036H48.0091" fill="#06184A"></path>
  <path d="M51.7877 28.33C51.588 29.308 51.901 30.0721 52.9167 30.0721C53.3828 30.0544 53.8266 29.8679 54.1655 29.5475C54.5044 29.227 54.7154 28.7944 54.7593 28.33C54.9641 27.3547 54.6466 26.5898 53.6354 26.5898C53.1693 26.608 52.7254 26.7941 52.3858 27.114C52.0461 27.4339 51.8337 27.8658 51.7877 28.33ZM52.2613 28.33C52.4104 27.6177 52.7298 26.986 53.5516 26.986C54.3734 26.986 54.4354 27.6164 54.287 28.33C54.1455 29.0264 53.821 29.6741 52.9993 29.6741C52.1775 29.6741 52.1199 29.0276 52.2613 28.33Z" fill="#06184A"></path>
  <path d="M57.3785 27.057H58.1209C58.6182 27.0794 58.6828 27.313 58.6278 27.5754C58.5728 27.8378 58.4115 28.0727 57.9071 28.0944H57.1647L57.3785 27.057ZM57.7222 28.4919C57.9007 28.5072 58.0819 28.4919 58.1811 28.6448C58.2956 28.81 58.2368 29.0852 58.2118 29.386C58.1982 29.5907 58.1952 29.796 58.2028 30.001H58.6828C58.6482 29.6671 58.6497 29.3304 58.6873 28.9968C58.7161 28.6224 58.7065 28.4093 58.334 28.3114V28.3024C58.5278 28.2575 58.7044 28.1575 58.8425 28.0144C58.9806 27.8713 59.0743 27.6912 59.1123 27.496C59.2493 26.8342 58.7232 26.6602 58.1785 26.6602H57.0182L56.3257 30.001H56.7737L57.086 28.4925" fill="#06184A"></path>
  <path d="M60.5742 29.999L61.108 29.1305H62.612L62.7829 29.999H63.2751L62.6511 26.6562H62.1685L60.116 29.999H60.5742ZM62.3022 27.1151L62.5583 28.7312H61.3422" fill="#06184A"></path>
  <path d="M65.4026 30.0003H65.8506L66.4612 27.0563H67.5492L67.6305 26.6562H64.9994L64.9155 27.0563H66.0087" fill="#06184A"></path>
  <path d="M68.7358 28.33C68.5335 29.308 68.8484 30.0721 69.8628 30.0721C70.3289 30.0544 70.7727 29.8679 71.1116 29.5475C71.4505 29.227 71.6615 28.7944 71.7054 28.33C71.9096 27.3547 71.5947 26.5898 70.5809 26.5898C70.115 26.608 69.6715 26.7943 69.3323 27.1142C68.9931 27.4341 68.7812 27.866 68.7358 28.33ZM69.2068 28.33C69.3559 27.6177 69.6753 26.986 70.4996 26.986C71.324 26.986 71.3835 27.6164 71.235 28.33C71.091 29.0264 70.7684 29.6741 69.9447 29.6741C69.1211 29.6741 69.0679 29.0276 69.2068 28.33Z" fill="#06184A"></path>
  <path d="M74.3265 27.057H75.0689C75.5611 27.0794 75.6289 27.313 75.5732 27.5754C75.5175 27.8378 75.3594 28.0727 74.8526 28.0944H74.1101L74.3265 27.057ZM74.6676 28.4919C74.8455 28.5072 75.0273 28.4919 75.129 28.6448C75.2423 28.81 75.1841 29.0852 75.1578 29.386C75.1412 29.5844 75.1482 29.8001 75.1482 30.001H75.6308C75.5941 29.6672 75.5956 29.3303 75.6353 28.9968C75.6622 28.6224 75.6526 28.4093 75.282 28.3114V28.3024C75.4761 28.2577 75.6531 28.1577 75.7916 28.0146C75.9301 27.8715 76.0243 27.6914 76.0628 27.496C76.1998 26.8342 75.6743 26.6602 75.129 26.6602H73.9668L73.2769 30.001H73.7249L74.0372 28.4925" fill="#06184A"></path>
  <path d="M78.3793 26.6562L77.6887 30.0022H78.1367L78.8292 26.6562" fill="#06184A"></path>
  <path d="M82.3484 29.9997L82.4297 29.6029H80.8034L81.0319 28.4969H82.5455L82.6268 28.0969H81.1157L81.3295 27.0563H82.9199L83.0025 26.6562H80.9628L80.2754 29.9997" fill="#06184A"></path>
  <path d="M84.3974 29.0241C84.2246 29.7736 84.6591 30.0692 85.3395 30.0692C85.6751 30.1089 86.0138 30.0271 86.2944 29.8387C86.5749 29.6503 86.7788 29.3677 86.8691 29.042C87.0451 28.201 86.2291 28.201 85.6735 28.0014C85.4092 27.9086 85.1519 27.8836 85.2255 27.5054C85.3094 27.1079 85.7683 26.9863 86.0934 26.9863C86.4185 26.9863 86.6963 27.1143 86.6361 27.4913H87.1072C87.2416 26.8423 86.7494 26.5889 86.1958 26.5889C85.8747 26.5567 85.5525 26.6388 85.286 26.8207C85.0194 27.0026 84.8256 27.2727 84.7385 27.5834C84.5823 28.3322 85.447 28.4602 85.9584 28.5793C86.2182 28.635 86.4531 28.7713 86.384 29.0913C86.288 29.5566 85.8143 29.6673 85.447 29.6673C85.0099 29.6673 84.7801 29.4926 84.871 29.0209" fill="#06184A"></path>
  <path d="M42.3939 22.0273L41.8179 24.7922H41.8109L40.7971 22.0273H40.1833L39.4915 25.3714H39.8927L40.4771 22.5336H40.4867L41.544 25.3714H42.1033L42.7926 22.0273" fill="#06184A"></path>
  <path d="M44.1764 25.3688L44.7102 24.4997H46.2161L46.3863 25.3688H46.8785L46.2545 22.0273H45.7719L43.7156 25.3688H44.1764ZM45.9012 22.485L46.1572 24.1003H44.9412" fill="#06184A"></path>
  <path d="M49.0061 25.3688H49.4541L50.0634 22.4248H51.1553L51.2366 22.0273H48.6048L48.521 22.4248H49.6141" fill="#06184A"></path>
  <path d="M52.9505 22.0273L52.2612 25.3714H52.7092L53.4043 22.0273" fill="#06184A"></path>
  <path d="M54.986 23.6959C54.7838 24.6745 55.0986 25.4387 56.1124 25.4387C56.5785 25.4204 57.0221 25.2337 57.3611 24.9132C57.7 24.5928 57.9113 24.1603 57.9557 23.6959C58.1598 22.7186 57.843 21.957 56.8312 21.957C56.3652 21.9744 55.9214 22.1602 55.582 22.48C55.2427 22.7998 55.0309 23.2318 54.986 23.6959ZM55.4564 23.6959C55.6055 22.9836 55.9223 22.3519 56.7486 22.3519C57.5749 22.3519 57.6305 22.9817 57.4814 23.6959C57.34 24.3923 57.0155 25.04 56.1937 25.04C55.3719 25.04 55.3143 24.3936 55.4558 23.6959" fill="#06184A"></path>
  <path d="M62.4841 22.0273L61.9152 24.7922H61.9049L60.8918 22.0273H60.2742L59.5842 25.3714H59.983L60.5718 22.5336H60.5788L61.6367 25.3714H62.1942L62.8861 22.0273" fill="#06184A"></path>
  <path d="M64.2693 25.3688L64.8024 24.4997H66.3065L66.4767 25.3688H66.9689L66.3417 22.0273H65.8616L63.8027 25.3688H64.2693ZM65.9916 22.485L66.2476 24.1003H65.0392" fill="#06184A"></path>
  <path d="M70.523 25.3695L70.6043 24.9714H69.0933L69.7013 22.0273H69.2494L68.5588 25.3695" fill="#06184A"></path>
  <path d="M43.0886 16.3923L45.6487 3.87941H46.6727C48.5415 3.87941 49.8248 4.27494 49.8248 6.96427C49.8248 10.3071 48.7726 16.3923 44.8276 16.3923H43.0886ZM43.3447 1.11328C43.0374 1.11328 42.9606 1.14144 42.8832 1.48065L39.374 18.4736C39.3453 18.6026 39.3278 18.7339 39.3215 18.8659C39.3215 19.0259 39.374 19.1591 39.7055 19.1591H44.6234C52.6408 19.1591 53.2796 8.83055 53.2796 6.70059C53.2796 2.37666 50.6946 1.11328 47.5195 1.11328" fill="#06184A"></path>
  <path d="M70.398 2.45872C70.4733 2.34421 70.5331 2.22026 70.5759 2.09008C70.5759 1.58959 67.9397 0.667969 66.1483 0.667969C62.227 0.667969 59.5626 2.69745 59.5626 6.49208C59.5626 9.23133 61.3841 10.2573 62.9451 11.2058C64.1995 11.9706 65.3291 12.6778 65.3291 14.1287C65.3291 16.0519 63.9422 16.7649 62.3806 16.7649C60.4855 16.7649 58.8733 15.6596 58.5898 15.6596C58.4093 15.6596 58.4093 15.7121 58.3082 15.8971L57.3354 17.8171C57.2595 17.9315 57.199 18.0555 57.1555 18.1857C57.1555 18.66 60.0004 19.6085 61.9191 19.6085C66.2757 19.6085 68.7852 16.9486 68.7852 13.4176C68.8131 12.7907 68.693 12.166 68.4347 11.5941C68.1765 11.0222 67.7872 10.519 67.2984 10.1254C65.2779 8.41275 62.8926 7.93723 62.8926 5.96535C62.8926 4.35636 64.0984 3.51538 65.7368 3.51538C67.452 3.51538 68.8626 4.62132 69.1436 4.62132C69.3228 4.62132 69.3228 4.56884 69.4271 4.38516" fill="#06184A"></path>
  <path d="M87.9787 6.14519C87.9787 2.58929 86.2635 0.667969 83.2887 0.667969C77.4006 0.667969 74.7625 7.99035 74.7625 14.1537C74.7625 17.7115 76.4758 19.6066 79.4985 19.6066C85.3655 19.6066 87.9793 12.2842 87.9793 6.14519H87.9787ZM79.8589 16.8404C78.6051 16.8404 78.2179 15.9444 78.2179 14.0756C78.2179 9.78174 79.8589 3.43218 82.9079 3.43218C84.138 3.43218 84.5226 4.3282 84.5226 6.22519C84.5226 10.5178 82.9079 16.8398 79.8589 16.8398" fill="#06184A"></path>
  <path d="M44.8496 1.10938H39.9126C39.9126 1.10938 42.1443 2.21788 42.1066 4.26399C41.9868 5.6324 41.7823 6.99205 41.4941 8.33511" fill="#06184A"></path>
</svg>
